<?xml version="1.0" standalone="no"?>
<!DOCTYPE svg PUBLIC "-//W3C//DTD SVG 20010904//EN"
 "http://www.w3.org/TR/2001/REC-SVG-20010904/DTD/svg10.dtd">
<svg version="1.0" xmlns="http://www.w3.org/2000/svg"
 width="512.000000pt" height="512.000000pt" viewBox="0 0 512.000000 512.000000"
 preserveAspectRatio="xMidYMid meet">

<g transform="translate(0.000000,512.000000) scale(0.100000,-0.100000)"
fill="#000000" stroke="none">
<path d="M3276 4430 c-16 -5 -40 -19 -53 -32 -56 -52 -53 69 -53 -1841 l0
-1764 23 -33 c36 -54 71 -74 127 -74 56 0 91 20 128 74 l22 33 0 1767 0 1767
-22 33 c-43 63 -109 90 -172 70z"/>
<path d="M972 3964 c-18 -9 -43 -31 -55 -48 l-22 -31 -3 -1313 c-3 -1455 -7
-1356 62 -1405 43 -31 129 -31 172 0 68 49 64 -48 64 1393 0 1439 4 1344 -63
1392 -39 28 -112 34 -155 12z"/>
<path d="M2516 3670 c-16 -5 -40 -19 -53 -32 -56 -52 -53 4 -53 -1081 l0
-1004 23 -33 c36 -54 71 -74 127 -74 56 0 91 20 128 74 l22 33 0 1007 0 1007
-22 33 c-43 63 -109 90 -172 70z"/>
<path d="M4036 3670 c-16 -5 -40 -19 -53 -32 -56 -52 -53 4 -53 -1081 l0
-1004 23 -33 c36 -54 71 -74 127 -74 56 0 91 20 128 74 l22 33 0 1007 0 1007
-22 33 c-43 63 -109 90 -172 70z"/>
<path d="M4762 3500 c-18 -11 -41 -34 -52 -52 -19 -32 -20 -52 -20 -888 0
-836 1 -856 20 -888 28 -45 76 -72 130 -72 54 0 102 27 130 72 19 32 20 52 20
888 0 836 -1 856 -20 888 -28 45 -76 72 -130 72 -27 0 -58 -8 -78 -20z"/>
<path d="M1719 3347 c-72 -48 -69 -12 -69 -792 0 -681 1 -701 20 -733 61 -100
211 -95 262 8 17 32 18 88 18 730 0 642 -1 698 -18 730 -25 50 -75 80 -132 80
-32 0 -58 -7 -81 -23z"/>
<path d="M212 3204 c-18 -9 -43 -31 -55 -48 l-22 -31 -3 -553 c-3 -612 -4
-598 62 -645 43 -31 129 -31 172 0 65 47 64 34 64 633 0 598 1 586 -63 632
-39 28 -112 34 -155 12z"/>
</g>
</svg>
